<svg width="18" height="12" viewBox="0 0 18 12" fill="none" xmlns="http://www.w3.org/2000/svg">
<path d="M8.27027 12L6.32432 12L6.32432 10.2857L8.27027 10.2857L8.27027 12Z" fill="black"/>
<path d="M7.2973 11.1429L5.35135 11.1429L5.35135 9.42857L7.2973 9.42857L7.2973 11.1429Z" fill="black"/>
<path d="M6.32432 10.2857L4.37838 10.2857L4.37838 8.57143L6.32432 8.57143L6.32432 10.2857Z" fill="black"/>
<path d="M5.35135 9.42857L3.40541 9.42857L3.40541 7.71428L5.35135 7.71428L5.35135 9.42857Z" fill="black"/>
<path d="M4.37838 8.57143L2.43243 8.57143L2.43243 6.85714L4.37838 6.85714L4.37838 8.57143Z" fill="black"/>
<path d="M3.40541 7.71428L1.45946 7.71428L1.45946 6L3.40541 6L3.40541 7.71428Z" fill="black"/>
<path d="M3.40541 6L1.45946 6L1.45946 4.28571L3.40541 4.28571L3.40541 6Z" fill="black"/>
<path d="M4.37838 5.14286L2.43243 5.14286L2.43243 3.42857L4.37838 3.42857L4.37838 5.14286Z" fill="black"/>
<path d="M5.35135 4.28571L3.40541 4.28571L3.40541 2.57143L5.35135 2.57143L5.35135 4.28571Z" fill="black"/>
<path d="M6.32432 3.42857L4.37838 3.42857L4.37838 1.71428L6.32433 1.71428L6.32432 3.42857Z" fill="black"/>
<path d="M7.2973 2.57143L5.35135 2.57143L5.35135 0.857142L7.2973 0.857142L7.2973 2.57143Z" fill="black"/>
<path d="M8.27027 1.71428L6.32433 1.71428L6.32433 -1.13993e-06L8.27027 -9.69809e-07L8.27027 1.71428Z" fill="black"/>
<path d="M3.40541 6.85714L1.45946 6.85714L1.45946 5.14286L3.40541 5.14286L3.40541 6.85714Z" fill="black"/>
<path d="M1.45946 6.85714L1.5158e-07 6.85714L3.01447e-07 5.14286L1.45946 5.14286L1.45946 6.85714Z" fill="black"/>
<path d="M18 6.85714L3.40541 6.85714L3.40541 5.14286L18 5.14286L18 6.85714Z" fill="black"/>
</svg>
