<svg width="18" height="12" viewBox="0 0 18 12" fill="none" xmlns="http://www.w3.org/2000/svg">
<path d="M9.72973 0H11.6757V1.71429H9.72973V0Z" fill="black"/>
<path d="M10.7027 0.857143H12.6486V2.57143H10.7027V0.857143Z" fill="black"/>
<path d="M11.6757 1.71429H13.6216V3.42857H11.6757V1.71429Z" fill="black"/>
<path d="M12.6486 2.57143H14.5946V4.28571H12.6486V2.57143Z" fill="black"/>
<path d="M13.6216 3.42857H15.5676V5.14286H13.6216V3.42857Z" fill="black"/>
<path d="M14.5946 4.28571H16.5405V6H14.5946V4.28571Z" fill="black"/>
<path d="M14.5946 6H16.5405V7.71429H14.5946V6Z" fill="black"/>
<path d="M13.6216 6.85714H15.5676V8.57143H13.6216V6.85714Z" fill="black"/>
<path d="M12.6486 7.71429H14.5946V9.42857H12.6486V7.71429Z" fill="black"/>
<path d="M11.6757 8.57143H13.6216V10.2857H11.6757V8.57143Z" fill="black"/>
<path d="M10.7027 9.42857H12.6486V11.1429H10.7027V9.42857Z" fill="black"/>
<path d="M9.72973 10.2857H11.6757V12H9.72973V10.2857Z" fill="black"/>
<path d="M14.5946 5.14286H16.5405V6.85714H14.5946V5.14286Z" fill="black"/>
<path d="M16.5405 5.14286H18V6.85714H16.5405V5.14286Z" fill="black"/>
<path d="M0 5.14286H14.5946V6.85714H0V5.14286Z" fill="black"/>
</svg>
