<svg width="24" height="24" viewBox="0 0 24 24" fill="none" xmlns="http://www.w3.org/2000/svg">
<g clip-path="url(#clip0_59_22)">
<path d="M15.4851 21.3697L15.4851 19.8001L17.0893 19.8001L17.0893 18.1441L18.6858 18.1441L18.6858 16.6177L20.265 16.6177L20.265 15.0385L21.9738 15.0385L21.9738 13.5034L23.4531 13.5034L23.4531 10.4766L21.9814 10.4766L21.9814 8.97319L20.2851 8.97319L20.2851 7.39399L18.7059 7.39399L18.7059 5.85223L17.1267 5.85223L17.1267 4.27303L15.4707 4.27303L15.4707 2.63623L10.7034 2.63623L10.7034 7.39399L2.17185 7.39399L2.17185 8.95687L0.549447 8.95687L0.549447 15.1086L2.17185 15.1086L2.17185 16.6033L10.7034 16.6033L10.7034 21.3697L15.4851 21.3697Z" fill="black"/>
<path d="M15.4774 19.7857L15.4774 19.7722L15.4918 19.7722L15.4918 18.1412L17.1161 18.1412L17.1161 16.5937L18.7049 16.5937L18.7049 15.0145L20.2841 15.0145L20.2841 13.489L21.9805 13.489L21.9805 10.491L21.9728 10.491L21.9728 10.4766L21.9805 10.4766L21.9805 10.4842L21.9728 10.4842L21.9728 8.98088L20.2841 8.98088L20.2841 8.97512L20.2774 8.97512L20.2774 8.98088L18.7049 8.98088L18.7049 7.40168L18.6982 7.40168L18.6982 7.394L18.7049 7.394L18.7049 7.40168L17.1257 7.40168L17.1257 5.82248L17.1113 5.82248L17.1113 5.8148L15.4841 5.8148L15.4841 4.2356L12.2096 4.2356L12.2096 8.90696L2.17759 8.90696L2.17759 15.171L11.7968 15.171L11.7968 19.7857L15.4813 19.7857L15.4774 19.7857Z" fill="#2A2C32"/>
<path d="M15.4929 18.1344L17.1172 18.1344L17.1172 16.5869L15.4929 16.5869L15.4929 18.1344Z" fill="#202026"/>
<path d="M18.7031 16.5887L18.7031 15.0095L17.0874 15.0095L17.0874 16.5887L18.7031 16.5887Z" fill="#191A1F"/>
<path d="M20.2852 15.0145L20.2852 13.489L18.6628 13.489L18.6628 15.0145L20.2852 15.0145Z" fill="#18191E"/>
<path d="M21.9805 13.488L21.9805 11.9846L20.312 11.9846L20.312 13.488L21.9805 13.488Z" fill="#16171B"/>
<path d="M21.9805 11.9807L21.9805 10.5215L20.312 10.5215L20.312 11.9807L21.9805 11.9807Z" fill="#44464B"/>
<path d="M20.2852 10.4737L20.2852 8.97803L18.706 8.97803L18.706 10.4737L20.2852 10.4737Z" fill="#3A3B41"/>
<path d="M18.7031 8.97691L18.7031 7.39771L17.1095 7.39771L17.1095 8.97691L18.7031 8.97691Z" fill="#3B3C42"/>
<path d="M17.1094 7.3978L17.1094 5.8186L15.4822 5.8186L15.4822 7.3978L17.1094 7.3978Z" fill="#39393E"/>
<path d="M15.4844 5.81848L15.4844 4.26904L13.862 4.26904L13.862 5.81848L15.4844 5.81848Z" fill="#37393E"/>
<path d="M15.4766 19.7856L15.4766 18.169L13.8321 18.169L13.8321 15.0288L12.2798 15.0288L12.2798 19.7856L15.4766 19.7856Z" fill="#202126"/>
<path d="M12.3164 8.95288L2.17881 8.95288L2.17881 10.438L12.3164 10.438L12.3164 8.95288Z" fill="#383A3F"/>
<path d="M12.3164 13.5168L2.17881 13.5168L2.17881 15.1229L12.3164 15.1229L12.3164 13.5168Z" fill="#1D1E23"/>
<path d="M13.8633 8.95288L13.8633 4.26904L12.2774 4.26904L12.2774 8.95288L13.8633 8.95288Z" fill="#1E1F24"/>
</g>
<defs>
<clipPath id="clip0_59_22">
<rect width="24" height="24" fill="white" transform="translate(24 1.04907e-06) rotate(90)"/>
</clipPath>
</defs>
</svg>
