<svg width="24" height="24" viewBox="0 0 24 24" fill="none" xmlns="http://www.w3.org/2000/svg">
<path d="M8.51488 2.63033L8.51488 4.19993L6.91072 4.19993L6.91072 5.85593L5.31424 5.85593L5.31424 7.38233L3.73504 7.38233L3.73504 8.96153L2.02624 8.96153L2.02624 10.4966L0.546876 10.4966L0.546876 13.5235L2.01856 13.5235L2.01856 15.0268L3.71488 15.0268L3.71488 16.606L5.29408 16.606L5.29408 18.1478L6.87328 18.1478L6.87328 19.727L8.52928 19.727L8.52928 21.3638L13.2966 21.3638L13.2966 16.606L21.8282 16.606L21.8282 15.0431L23.4506 15.0431L23.4506 8.89145L21.8282 8.89145L21.8282 7.39673L13.2966 7.39673L13.2966 2.63033L8.51488 2.63033Z" fill="black"/>
<path d="M8.52257 4.21432L8.52257 4.22776L8.50817 4.22776L8.50817 5.8588L6.88385 5.8588L6.88385 7.40632L5.29505 7.40632L5.29505 8.98553L3.71585 8.98553L3.71585 10.511L2.01953 10.511L2.01953 13.509L2.02721 13.509L2.02721 13.5234L2.01953 13.5234L2.01953 13.5158L2.02721 13.5158L2.02721 15.0191L3.71585 15.0191L3.71585 15.0249L3.72257 15.0249L3.72257 15.0191L5.29505 15.0191L5.29505 16.5983L5.30177 16.5983L5.30177 16.606L5.29505 16.606L5.29505 16.5983L6.87425 16.5983L6.87425 18.1775L6.88865 18.1775L6.88865 18.1852L8.51585 18.1852L8.51585 19.7644L11.7904 19.7644L11.7904 15.093L21.8224 15.093L21.8224 8.82904L12.2032 8.82904L12.2032 4.21432L8.51873 4.21432L8.52257 4.21432Z" fill="#2A2C32"/>
<path d="M8.50713 5.86557L6.88281 5.86557L6.88281 7.41309L8.50713 7.41309L8.50713 5.86557Z" fill="#202026"/>
<path d="M5.29688 7.41128L5.29688 8.99048L6.91256 8.99048L6.91256 7.41128L5.29688 7.41128Z" fill="#191A1F"/>
<path d="M3.71484 8.98555L3.71484 10.511L5.33724 10.511L5.33724 8.98555L3.71484 8.98555Z" fill="#18191E"/>
<path d="M2.01953 10.512L2.01953 12.0154L3.68801 12.0154L3.68801 10.512L2.01953 10.512Z" fill="#16171B"/>
<path d="M2.01953 12.0193L2.01953 13.4785L3.68801 13.4785L3.68801 12.0193L2.01953 12.0193Z" fill="#44464B"/>
<path d="M3.71484 13.5263L3.71484 15.022L5.29404 15.022L5.29404 13.5263L3.71484 13.5263Z" fill="#3A3B41"/>
<path d="M5.29688 15.0231L5.29688 16.6023L6.89048 16.6023L6.89048 15.0231L5.29688 15.0231Z" fill="#3B3C42"/>
<path d="M6.89063 16.6022L6.89063 18.1814L8.51783 18.1814L8.51783 16.6022L6.89063 16.6022Z" fill="#39393E"/>
<path d="M8.51563 18.1815L8.51563 19.731L10.138 19.731L10.138 18.1815L8.51563 18.1815Z" fill="#37393E"/>
<path d="M8.52344 4.21439L8.52344 5.83103L10.1679 5.83103L10.1679 8.97119L11.7202 8.97119L11.7202 4.21439L8.52344 4.21439Z" fill="#202126"/>
<path d="M11.6836 15.0471L21.8212 15.0471L21.8212 13.562L11.6836 13.562L11.6836 15.0471Z" fill="#383A3F"/>
<path d="M11.6836 10.4832L21.8212 10.4832L21.8212 8.87708L11.6836 8.87708L11.6836 10.4832Z" fill="#1D1E23"/>
<path d="M10.1367 15.0471L10.1367 19.731L11.7226 19.731L11.7226 15.0471L10.1367 15.0471Z" fill="#1E1F24"/>
</svg>
