<svg width="24" height="24" viewBox="0 0 24 24" fill="none" xmlns="http://www.w3.org/2000/svg">
<g clip-path="url(#clip0_59_52)">
<path d="M1.91999 13.5744L0.498235 13.5744L0.498234 10.4074L2.10143 10.4074L2.10143 8.80419L3.83903 8.80419L3.83903 7.20963L5.49119 7.20963L5.49119 5.55843L7.08479 5.55843L7.08479 4.01667L8.68511 4.01667L8.68511 2.40195L13.4899 2.40195L13.4899 7.23843L21.9245 7.23842L21.9245 8.80419L23.4336 8.80419L23.4336 15.265L21.9245 15.265L21.9245 16.8701L13.4899 16.8701L13.4899 21.7939L8.68512 21.7939L8.68512 20.0871L7.0848 20.0871L7.0848 18.4829L5.49983 18.4829L5.49983 16.8461L3.83904 16.8461L3.83904 15.265L2.10143 15.265L2.10143 13.5744L1.91999 13.5744Z" fill="#23242D"/>
<path d="M3.77328 13.5743L2.09423 13.5743L2.09423 12.0085L3.77328 12.0085L3.77328 10.3881L5.48111 10.3881L5.48111 8.79255L7.04687 8.79255L7.04687 7.21911L8.68079 7.21911L8.68079 5.56791L10.2725 5.56791L10.2725 3.96855L11.9496 3.96855L11.9496 8.8223L21.9336 8.8223L21.9336 13.5849L11.9496 13.5849L11.9496 20.1311L8.70768 20.1311L8.70768 18.5154L7.0536 18.5154L7.0536 16.8508L5.47631 16.8508L5.47631 15.2649L3.77328 15.2649L3.77328 13.5743Z" fill="#636469"/>
<path d="M11.961 15.2631L11.961 13.5831L21.9258 13.5831L21.9258 15.313L11.961 15.2631Z" fill="#7B7C81"/>
<path d="M11.961 10.3967L11.961 8.77337L21.9258 8.77337L21.9258 10.3967L11.961 10.3967Z" fill="#49494F"/>
<path d="M11.9531 8.77449L10.2914 8.77449L10.2914 5.53257L8.69489 5.53257L8.69489 7.20873L7.04657 7.20873L7.04657 8.79177L5.48081 8.79177L5.48081 10.3873L3.79121 10.3873L3.79121 13.5841L5.49809 13.5841L5.49809 15.2641L7.08689 15.2641L7.08689 16.8577L8.75537 16.8577L8.75537 18.5146L10.3058 18.5146L10.3058 15.2641L11.9531 15.2641L11.9531 8.77449Z" fill="#626367"/>
<path d="M8.80469 20.0852L7.08629 20.0852L7.08629 18.459L8.76341 18.459L8.80469 20.0852Z" fill="#23222B"/>
<path d="M7.02735 18.4695L5.50287 18.4695L5.50287 16.8308L7.02735 16.8308L7.02735 18.4695Z" fill="#23222B"/>
<path d="M5.4336 16.8442L3.84288 16.8442L3.84288 15.2631L5.4336 15.2631L5.4336 16.8442Z" fill="#23222B"/>
<path d="M3.77344 15.2629L2.0992 15.2629L2.0992 13.6261L3.77344 13.6261L3.77344 15.2629Z" fill="#292831"/>
<path d="M3.77344 13.5745L2.0992 13.5745L2.0992 12.0087L3.77344 12.0087L3.77344 13.5745Z" fill="#898A8F"/>
<path d="M8.76563 18.5137L7.05779 18.5137L7.05779 16.849L8.76563 16.849L8.76563 18.5137Z" fill="#7A7B80"/>
<path d="M7.05469 16.8567L5.47741 16.8567L5.47741 15.2631L7.05469 15.2631L7.05469 16.8567Z" fill="#86858A"/>
<path d="M5.49219 15.2629L3.84579 15.2629L3.84579 13.5829L5.49219 13.5829L5.49219 15.2629Z" fill="#848589"/>
</g>
<defs>
<clipPath id="clip0_59_52">
<rect width="24" height="24" fill="white" transform="translate(24 24) rotate(180)"/>
</clipPath>
</defs>
</svg>
