<svg width="24" height="24" viewBox="0 0 24 24" fill="none" xmlns="http://www.w3.org/2000/svg">
<path d="M22.08 10.4256H23.5018V13.5926H21.8986V15.1958H20.161V16.7904H18.5088V18.4416H16.9152V19.9833H15.3149V21.5981H10.5101V16.7616H2.07553V15.1958H0.566406V8.73501H2.07553V7.12989H10.5101V2.20605H15.3149V3.91293H16.9152V5.51709H18.5002V7.15389H20.161V8.73501H21.8986V10.4256H22.08Z" fill="#23242D"/>
<path d="M20.2267 10.4257H21.9058V11.9915H20.2267V13.6119H18.5189V15.2075H16.9531V16.7809H15.3192V18.4321H13.7275V20.0315H12.0504V15.1777H2.06641V10.4151H12.0504V3.8689H15.2923V5.48458H16.9464V7.14922H18.5237V8.73514H20.2267V10.4257Z" fill="#636469"/>
<path d="M12.039 8.73693V10.4169H2.07422V8.68701L12.039 8.73693Z" fill="#7B7C81"/>
<path d="M12.039 13.6033V15.2266H2.07422V13.6033H12.039Z" fill="#49494F"/>
<path d="M12.0469 15.2255H13.7086V18.4674H15.3051V16.7913H16.9534V15.2082H18.5192V13.6127H20.2088V10.4159H18.5019V8.73591H16.9131V7.14231H15.2446V5.48535H13.6942V8.73591H12.0469V15.2255Z" fill="#626367"/>
<path d="M15.1953 3.91479H16.9137V5.54104H15.2366L15.1953 3.91479Z" fill="#23222B"/>
<path d="M16.9727 5.53052H18.4971V7.16924H16.9727V5.53052Z" fill="#23222B"/>
<path d="M18.5664 7.15576H20.1571V8.73688H18.5664V7.15576Z" fill="#23222B"/>
<path d="M20.2266 8.73706H21.9008V10.3739H20.2266V8.73706Z" fill="#292831"/>
<path d="M20.2266 10.4255H21.9008V11.9913H20.2266V10.4255Z" fill="#898A8F"/>
<path d="M15.2344 5.48633H16.9422V7.15097H15.2344V5.48633Z" fill="#7A7B80"/>
<path d="M16.9453 7.14331H18.5226V8.73691H16.9453V7.14331Z" fill="#86858A"/>
<path d="M18.5078 8.73706H20.1542V10.4171H18.5078V8.73706Z" fill="#848589"/>
</svg>
